<mxfile host="app.diagrams.net" modified="2023-12-01T17:30:29.024Z" agent="Mozilla/5.0 (Windows NT 10.0; Win64; x64) AppleWebKit/537.36 (KHTML, like Gecko) Chrome/119.0.0.0 Safari/537.36" etag="1KvGt-ClrMU30Bli4St-" version="22.1.5" type="github">
  <diagram name="Page-1" id="K1Xrfr7fSabbaLhxthaO">
    <mxGraphModel dx="1050" dy="530" grid="1" gridSize="10" guides="1" tooltips="1" connect="1" arrows="1" fold="1" page="1" pageScale="1" pageWidth="850" pageHeight="1100" math="0" shadow="0">
      <root>
        <mxCell id="0" />
        <mxCell id="1" parent="0" />
        <mxCell id="YbdAK8K5_lgZhOfhUo7q-37" value="" style="edgeStyle=orthogonalEdgeStyle;rounded=0;orthogonalLoop=1;jettySize=auto;html=1;" edge="1" parent="1" source="YbdAK8K5_lgZhOfhUo7q-2" target="YbdAK8K5_lgZhOfhUo7q-10">
          <mxGeometry relative="1" as="geometry" />
        </mxCell>
        <mxCell id="YbdAK8K5_lgZhOfhUo7q-38" value="" style="edgeStyle=orthogonalEdgeStyle;rounded=0;orthogonalLoop=1;jettySize=auto;html=1;" edge="1" parent="1" source="YbdAK8K5_lgZhOfhUo7q-2" target="YbdAK8K5_lgZhOfhUo7q-11">
          <mxGeometry relative="1" as="geometry" />
        </mxCell>
        <mxCell id="YbdAK8K5_lgZhOfhUo7q-40" value="" style="edgeStyle=orthogonalEdgeStyle;rounded=0;orthogonalLoop=1;jettySize=auto;html=1;exitX=0.55;exitY=0.95;exitDx=0;exitDy=0;exitPerimeter=0;" edge="1" parent="1" source="YbdAK8K5_lgZhOfhUo7q-2" target="YbdAK8K5_lgZhOfhUo7q-9">
          <mxGeometry relative="1" as="geometry" />
        </mxCell>
        <mxCell id="YbdAK8K5_lgZhOfhUo7q-41" value="" style="edgeStyle=orthogonalEdgeStyle;rounded=0;orthogonalLoop=1;jettySize=auto;html=1;exitX=0.47;exitY=0.095;exitDx=0;exitDy=0;exitPerimeter=0;" edge="1" parent="1" source="YbdAK8K5_lgZhOfhUo7q-2" target="YbdAK8K5_lgZhOfhUo7q-8">
          <mxGeometry relative="1" as="geometry" />
        </mxCell>
        <mxCell id="YbdAK8K5_lgZhOfhUo7q-2" value="Aaron" style="ellipse;shape=cloud;whiteSpace=wrap;html=1;" vertex="1" parent="1">
          <mxGeometry x="380" y="320" width="120" height="80" as="geometry" />
        </mxCell>
        <mxCell id="YbdAK8K5_lgZhOfhUo7q-33" value="" style="edgeStyle=orthogonalEdgeStyle;rounded=0;orthogonalLoop=1;jettySize=auto;html=1;" edge="1" parent="1" source="YbdAK8K5_lgZhOfhUo7q-8" target="YbdAK8K5_lgZhOfhUo7q-32">
          <mxGeometry relative="1" as="geometry" />
        </mxCell>
        <mxCell id="YbdAK8K5_lgZhOfhUo7q-46" style="edgeStyle=orthogonalEdgeStyle;rounded=0;orthogonalLoop=1;jettySize=auto;html=1;exitX=0;exitY=0;exitDx=0;exitDy=0;entryX=0.837;entryY=0.98;entryDx=0;entryDy=0;entryPerimeter=0;" edge="1" parent="1" source="YbdAK8K5_lgZhOfhUo7q-8" target="YbdAK8K5_lgZhOfhUo7q-35">
          <mxGeometry relative="1" as="geometry" />
        </mxCell>
        <mxCell id="YbdAK8K5_lgZhOfhUo7q-8" value="Friends" style="ellipse;whiteSpace=wrap;html=1;aspect=fixed;" vertex="1" parent="1">
          <mxGeometry x="400" y="160" width="80" height="80" as="geometry" />
        </mxCell>
        <mxCell id="YbdAK8K5_lgZhOfhUo7q-42" value="" style="edgeStyle=orthogonalEdgeStyle;rounded=0;orthogonalLoop=1;jettySize=auto;html=1;" edge="1" parent="1" source="YbdAK8K5_lgZhOfhUo7q-9" target="YbdAK8K5_lgZhOfhUo7q-16">
          <mxGeometry relative="1" as="geometry" />
        </mxCell>
        <mxCell id="YbdAK8K5_lgZhOfhUo7q-9" value="Travel" style="ellipse;whiteSpace=wrap;html=1;aspect=fixed;" vertex="1" parent="1">
          <mxGeometry x="400" y="480" width="80" height="80" as="geometry" />
        </mxCell>
        <mxCell id="YbdAK8K5_lgZhOfhUo7q-21" value="" style="edgeStyle=orthogonalEdgeStyle;rounded=0;orthogonalLoop=1;jettySize=auto;html=1;" edge="1" parent="1" source="YbdAK8K5_lgZhOfhUo7q-10" target="YbdAK8K5_lgZhOfhUo7q-19">
          <mxGeometry relative="1" as="geometry" />
        </mxCell>
        <mxCell id="YbdAK8K5_lgZhOfhUo7q-23" style="edgeStyle=orthogonalEdgeStyle;rounded=0;orthogonalLoop=1;jettySize=auto;html=1;exitX=1;exitY=0;exitDx=0;exitDy=0;entryX=0;entryY=0.75;entryDx=0;entryDy=0;" edge="1" parent="1" source="YbdAK8K5_lgZhOfhUo7q-10" target="YbdAK8K5_lgZhOfhUo7q-22">
          <mxGeometry relative="1" as="geometry" />
        </mxCell>
        <mxCell id="YbdAK8K5_lgZhOfhUo7q-25" style="edgeStyle=orthogonalEdgeStyle;rounded=0;orthogonalLoop=1;jettySize=auto;html=1;exitX=1;exitY=1;exitDx=0;exitDy=0;entryX=0;entryY=0.25;entryDx=0;entryDy=0;" edge="1" parent="1" source="YbdAK8K5_lgZhOfhUo7q-10" target="YbdAK8K5_lgZhOfhUo7q-24">
          <mxGeometry relative="1" as="geometry" />
        </mxCell>
        <mxCell id="YbdAK8K5_lgZhOfhUo7q-10" value="Music" style="ellipse;whiteSpace=wrap;html=1;aspect=fixed;" vertex="1" parent="1">
          <mxGeometry x="560" y="320" width="80" height="80" as="geometry" />
        </mxCell>
        <mxCell id="YbdAK8K5_lgZhOfhUo7q-29" value="" style="edgeStyle=orthogonalEdgeStyle;rounded=0;orthogonalLoop=1;jettySize=auto;html=1;" edge="1" parent="1" source="YbdAK8K5_lgZhOfhUo7q-11" target="YbdAK8K5_lgZhOfhUo7q-26">
          <mxGeometry relative="1" as="geometry" />
        </mxCell>
        <mxCell id="YbdAK8K5_lgZhOfhUo7q-30" style="edgeStyle=orthogonalEdgeStyle;rounded=0;orthogonalLoop=1;jettySize=auto;html=1;exitX=0;exitY=1;exitDx=0;exitDy=0;entryX=1;entryY=0.25;entryDx=0;entryDy=0;" edge="1" parent="1" source="YbdAK8K5_lgZhOfhUo7q-11" target="YbdAK8K5_lgZhOfhUo7q-28">
          <mxGeometry relative="1" as="geometry" />
        </mxCell>
        <mxCell id="YbdAK8K5_lgZhOfhUo7q-31" style="edgeStyle=orthogonalEdgeStyle;rounded=0;orthogonalLoop=1;jettySize=auto;html=1;exitX=0;exitY=0;exitDx=0;exitDy=0;entryX=1;entryY=0.75;entryDx=0;entryDy=0;" edge="1" parent="1" source="YbdAK8K5_lgZhOfhUo7q-11" target="YbdAK8K5_lgZhOfhUo7q-27">
          <mxGeometry relative="1" as="geometry" />
        </mxCell>
        <mxCell id="YbdAK8K5_lgZhOfhUo7q-11" value="Code" style="ellipse;whiteSpace=wrap;html=1;aspect=fixed;" vertex="1" parent="1">
          <mxGeometry x="240" y="320" width="80" height="80" as="geometry" />
        </mxCell>
        <mxCell id="YbdAK8K5_lgZhOfhUo7q-15" value="" style="rounded=1;whiteSpace=wrap;html=1;" vertex="1" parent="1">
          <mxGeometry x="200" y="600" width="120" height="60" as="geometry" />
        </mxCell>
        <mxCell id="YbdAK8K5_lgZhOfhUo7q-16" value="Learning more about local culture" style="rounded=1;whiteSpace=wrap;html=1;" vertex="1" parent="1">
          <mxGeometry x="380" y="640" width="120" height="60" as="geometry" />
        </mxCell>
        <mxCell id="YbdAK8K5_lgZhOfhUo7q-17" value="Exploring new places" style="rounded=1;whiteSpace=wrap;html=1;" vertex="1" parent="1">
          <mxGeometry x="560" y="600" width="120" height="60" as="geometry" />
        </mxCell>
        <mxCell id="YbdAK8K5_lgZhOfhUo7q-19" value="" style="rounded=1;whiteSpace=wrap;html=1;" vertex="1" parent="1">
          <mxGeometry x="730" y="330" width="120" height="60" as="geometry" />
        </mxCell>
        <mxCell id="YbdAK8K5_lgZhOfhUo7q-22" value="" style="rounded=1;whiteSpace=wrap;html=1;" vertex="1" parent="1">
          <mxGeometry x="720" y="200" width="120" height="60" as="geometry" />
        </mxCell>
        <mxCell id="YbdAK8K5_lgZhOfhUo7q-24" value="" style="rounded=1;whiteSpace=wrap;html=1;" vertex="1" parent="1">
          <mxGeometry x="720" y="460" width="120" height="60" as="geometry" />
        </mxCell>
        <mxCell id="YbdAK8K5_lgZhOfhUo7q-26" value="" style="rounded=1;whiteSpace=wrap;html=1;" vertex="1" parent="1">
          <mxGeometry x="30" y="330" width="120" height="60" as="geometry" />
        </mxCell>
        <mxCell id="YbdAK8K5_lgZhOfhUo7q-27" value="" style="rounded=1;whiteSpace=wrap;html=1;" vertex="1" parent="1">
          <mxGeometry x="40" y="200" width="120" height="60" as="geometry" />
        </mxCell>
        <mxCell id="YbdAK8K5_lgZhOfhUo7q-28" value="" style="rounded=1;whiteSpace=wrap;html=1;" vertex="1" parent="1">
          <mxGeometry x="40" y="460" width="120" height="60" as="geometry" />
        </mxCell>
        <mxCell id="YbdAK8K5_lgZhOfhUo7q-32" value="" style="rounded=1;whiteSpace=wrap;html=1;" vertex="1" parent="1">
          <mxGeometry x="380" y="20" width="120" height="60" as="geometry" />
        </mxCell>
        <mxCell id="YbdAK8K5_lgZhOfhUo7q-34" value="" style="rounded=1;whiteSpace=wrap;html=1;" vertex="1" parent="1">
          <mxGeometry x="560" y="60" width="120" height="60" as="geometry" />
        </mxCell>
        <mxCell id="YbdAK8K5_lgZhOfhUo7q-35" value="" style="rounded=1;whiteSpace=wrap;html=1;" vertex="1" parent="1">
          <mxGeometry x="200" y="60" width="120" height="60" as="geometry" />
        </mxCell>
        <mxCell id="YbdAK8K5_lgZhOfhUo7q-36" style="edgeStyle=orthogonalEdgeStyle;rounded=0;orthogonalLoop=1;jettySize=auto;html=1;exitX=1;exitY=0;exitDx=0;exitDy=0;entryX=0.157;entryY=0.98;entryDx=0;entryDy=0;entryPerimeter=0;" edge="1" parent="1" source="YbdAK8K5_lgZhOfhUo7q-8" target="YbdAK8K5_lgZhOfhUo7q-34">
          <mxGeometry relative="1" as="geometry" />
        </mxCell>
        <mxCell id="YbdAK8K5_lgZhOfhUo7q-44" style="edgeStyle=orthogonalEdgeStyle;rounded=0;orthogonalLoop=1;jettySize=auto;html=1;exitX=0;exitY=1;exitDx=0;exitDy=0;entryX=0.817;entryY=-0.047;entryDx=0;entryDy=0;entryPerimeter=0;" edge="1" parent="1" source="YbdAK8K5_lgZhOfhUo7q-9" target="YbdAK8K5_lgZhOfhUo7q-15">
          <mxGeometry relative="1" as="geometry" />
        </mxCell>
        <mxCell id="YbdAK8K5_lgZhOfhUo7q-45" style="edgeStyle=orthogonalEdgeStyle;rounded=0;orthogonalLoop=1;jettySize=auto;html=1;exitX=1;exitY=1;exitDx=0;exitDy=0;" edge="1" parent="1" source="YbdAK8K5_lgZhOfhUo7q-9">
          <mxGeometry relative="1" as="geometry">
            <mxPoint x="580" y="600" as="targetPoint" />
          </mxGeometry>
        </mxCell>
      </root>
    </mxGraphModel>
  </diagram>
</mxfile>
